<svg version="1.1" id="Layer_1" xmlns="http://www.w3.org/2000/svg" xmlns:xlink="http://www.w3.org/1999/xlink" x="0px" y="0px"
	 width="100%" viewBox="0 0 1024 1024" enable-background="new 0 0 1024 1024" xml:space="preserve">
<path fill="#002543" opacity="1.000000" stroke="none" 
	d="
M650.000000,1025.000000 
	C433.333344,1025.000000 217.166672,1025.000000 1.000000,1025.000000 
	C1.000000,683.666687 1.000000,342.333344 1.000000,1.000000 
	C342.333344,1.000000 683.666687,1.000000 1025.000000,1.000000 
	C1025.000000,342.333344 1025.000000,683.666687 1025.000000,1025.000000 
	C900.166687,1025.000000 775.333313,1025.000000 650.000000,1025.000000 
M463.697296,403.292328 
	C463.498352,403.614746 463.299438,403.937134 463.085602,404.085266 
	C463.085602,404.085266 463.259308,404.105591 462.699158,404.287323 
	C462.519531,404.621796 462.339905,404.956268 462.132416,405.129517 
	C462.132416,405.129517 462.293945,405.155609 461.728149,405.306000 
	C461.529266,405.626190 461.330383,405.946350 461.111969,406.138245 
	C461.111969,406.138245 461.237701,406.170441 460.467407,406.059204 
	C458.601074,405.380768 456.734772,404.702362 454.412231,403.931580 
	C454.113770,403.757538 453.968353,403.497833 453.761688,402.644562 
	C453.465057,402.440338 453.168457,402.236115 452.959686,402.032074 
	C452.959686,402.032074 452.944550,402.118591 452.919067,401.384003 
	C451.461029,400.093658 450.002960,398.803314 448.668274,397.336578 
	C448.668274,397.336578 448.490875,397.458435 448.711090,396.719696 
	C448.014587,396.248932 447.318085,395.778168 446.781708,395.244629 
	C446.781708,395.244629 446.749420,395.413574 446.620880,394.805054 
	C446.256653,394.663483 445.892395,394.521881 445.716675,394.328156 
	C445.716675,394.328156 445.570007,394.457550 445.660339,393.918549 
	C445.257385,393.640900 444.854462,393.363251 443.949615,392.528564 
	C434.042053,381.925568 424.032288,371.415924 414.246155,360.701996 
	C384.987030,328.668823 355.837677,296.535400 326.586395,264.495056 
	C322.055878,259.532562 316.630157,255.923050 309.773376,254.823975 
	C308.035706,254.545410 306.382538,253.739777 305.056519,252.668610 
	C304.025085,252.447739 302.993866,252.035019 301.962219,252.033966 
	C272.307526,252.003479 242.652817,252.012756 212.998093,252.025055 
	C212.033936,252.025452 211.069809,252.124634 210.105667,252.177780 
	C211.843826,252.988281 213.590408,252.983047 215.336975,252.989059 
	C231.989716,253.046402 248.642456,253.105652 264.545776,253.593369 
	C246.129150,253.593369 227.712524,253.593369 209.295898,253.593369 
	C209.035599,254.067291 208.775284,254.541214 208.514969,255.015137 
	C209.710434,256.834961 210.715408,258.820648 212.132111,260.447845 
	C221.608490,271.332245 231.216064,282.102356 240.700012,292.980225 
	C267.812134,324.077179 294.853088,355.236267 321.984070,386.316742 
	C345.799988,413.599640 369.714203,440.796692 393.556213,468.056824 
	C404.379333,480.431671 415.086700,492.907928 425.932404,505.262848 
	C434.921875,515.503235 444.069183,525.604980 453.078705,535.828003 
	C456.046478,539.195496 458.398346,539.957153 461.763824,535.902588 
	C467.899841,528.510315 474.544556,521.538025 481.027618,514.436584 
	C495.587158,498.488373 510.231384,482.617188 524.743286,466.625885 
	C548.521851,440.423370 572.222656,414.150330 596.325439,388.318481 
	C597.182800,388.177460 598.040100,388.036438 599.188232,387.847565 
	C599.188232,498.755859 599.188232,609.318237 599.188232,719.880676 
	C599.443970,719.883423 599.699707,719.886169 599.955444,719.888977 
	C599.955444,718.325867 599.955566,716.762756 599.955444,715.199646 
	C599.948425,652.737305 599.922058,590.274963 599.940613,527.812622 
	C599.954712,480.508972 600.026184,433.205292 600.776001,386.414795 
	C600.820740,387.243744 600.904785,388.072662 600.904724,388.901611 
	C600.898926,481.671600 600.883850,574.441589 600.877808,667.211548 
	C600.876648,684.365417 600.783325,701.520630 600.967590,718.672729 
	C601.118408,732.707581 606.615540,744.284912 618.970398,751.367065 
	C624.074280,754.292725 630.380737,755.120422 635.446289,757.067444 
	C634.690735,757.120605 633.935120,757.173706 633.179565,757.226807 
	C633.601440,757.808838 634.008301,757.927246 634.415161,757.927368 
	C701.605225,757.953125 768.795288,757.973328 835.985352,757.943604 
	C836.615051,757.943298 837.244507,757.271973 838.283630,756.229065 
	C838.888306,754.486084 840.012390,752.745361 840.019958,750.999756 
	C840.136841,723.919617 840.133850,696.838745 840.061401,669.758301 
	C840.056335,667.860779 839.290405,665.965393 839.287415,663.680298 
	C838.187439,663.124390 837.087463,662.568420 835.398865,661.423950 
	C833.587463,661.290955 831.776123,661.042908 829.964661,661.041931 
	C790.651184,661.020813 751.337402,661.109924 712.024658,660.941406 
	C705.962219,660.915405 699.904785,659.730591 693.946533,659.062134 
	C693.946533,659.062134 693.942139,659.165466 693.742554,658.643372 
	C693.434448,658.448181 693.126343,658.252991 692.954102,658.047485 
	C692.954102,658.047485 692.945190,658.183472 692.746216,657.665405 
	C692.454773,657.450928 692.163330,657.236389 691.343384,656.844116 
	C690.990723,656.211060 690.638062,655.578064 690.643433,654.559875 
	C690.352112,654.082275 690.060730,653.604675 689.886475,653.098572 
	C689.886475,653.098572 689.871460,653.218140 689.894958,652.395203 
	C689.952637,651.576782 690.010254,650.758362 690.630920,649.347168 
	C690.753174,647.867126 690.982300,646.387024 690.982483,644.906982 
	C690.999695,527.012207 691.003235,409.117462 690.959290,291.222687 
	C690.958618,289.490356 690.351685,287.758179 689.981628,285.263184 
	C689.997742,284.499542 690.013916,283.735931 690.608154,282.380554 
	C690.738770,276.281708 690.992493,270.181915 690.943542,264.084503 
	C690.921875,261.387207 690.287292,258.694824 689.407288,256.635620 
	C689.317383,275.737183 689.244019,294.838867 689.131836,313.940308 
	C689.058716,326.395020 688.929443,338.849365 688.424927,350.535919 
	C688.336487,349.384094 688.170471,348.232208 688.171021,347.080414 
	C688.183716,318.348663 688.130615,289.616302 688.328796,260.885742 
	C688.359375,256.451233 687.597778,253.476593 683.150879,252.965790 
	C683.288025,252.671982 683.425232,252.378174 683.562378,252.084381 
	C683.231750,252.070557 682.901123,252.044754 682.570496,252.044586 
	C660.885925,252.033417 639.201294,252.022751 617.516724,252.026001 
	C617.070190,252.026077 616.623596,252.189651 616.177063,252.276978 
	C616.321045,252.485535 616.439514,252.720673 616.618713,252.892624 
	C616.724792,252.994415 616.926575,252.996460 616.620605,253.682999 
	C611.077026,255.417252 605.533508,257.151520 599.749084,258.587952 
	C599.553101,258.809967 599.357178,259.031952 599.131775,259.147156 
	C599.131775,259.147156 599.239014,259.175079 598.506958,259.114746 
	C597.810669,259.915955 597.114380,260.717163 596.335205,261.360138 
	C596.335205,261.360138 596.503723,261.419464 595.776489,261.346649 
	C595.128418,262.068451 594.480347,262.790253 593.654602,263.738129 
	C593.654602,263.738129 593.387329,263.844086 592.934937,263.563080 
	C592.893921,263.842163 592.852966,264.121277 592.674438,264.659119 
	C592.674438,264.659119 592.415466,264.796387 591.959045,264.538086 
	C591.878235,264.620392 591.724670,264.708832 591.730957,264.783813 
	C591.746704,264.970581 591.835205,265.151215 591.744751,265.726929 
	C591.744751,265.726929 591.353577,265.880493 590.940979,265.577240 
	C590.860291,265.656494 590.708435,265.739899 590.712830,265.814117 
	C590.723694,265.998383 590.805786,266.178497 590.718323,266.681824 
	C590.718323,266.681824 590.399841,266.829498 589.957214,266.563141 
	C589.876831,266.643799 589.725342,266.728973 589.730164,266.804169 
	C589.742065,266.989777 589.825623,267.170837 589.732605,267.716888 
	C589.732605,267.716888 589.370789,267.867950 588.954529,267.577271 
	C588.875122,267.656158 588.724304,267.740845 588.730225,267.812744 
	C588.744934,267.993530 588.830444,268.168579 588.739502,268.715546 
	C588.739502,268.715546 588.371338,268.867371 587.954224,268.577087 
	C587.874695,268.656036 587.723938,268.740723 587.729736,268.812775 
	C587.744263,268.993866 587.829590,269.169250 587.769165,269.659393 
	C587.769165,269.659393 587.485718,269.835693 586.897217,269.595276 
	C586.619202,270.106476 586.341125,270.617676 586.047485,271.038361 
	C586.047485,271.038361 586.139343,271.040558 585.628540,271.252289 
	C585.434692,271.557709 585.240845,271.863129 585.039368,272.035187 
	C585.039368,272.035187 585.172668,272.042877 584.640503,272.266998 
	C584.445129,272.590088 584.249756,272.913177 583.984314,273.677216 
	C583.823608,273.975281 583.574646,274.109131 582.700806,274.282715 
	C582.495667,274.594818 582.290466,274.906952 582.071228,275.071472 
	C582.071228,275.071472 582.218689,275.086853 581.683350,275.294067 
	C581.488159,275.613495 581.292969,275.932953 581.087891,276.082489 
	C581.087891,276.082489 581.256165,276.107605 580.572388,276.257812 
	C579.932373,277.338501 579.292297,278.419189 578.543213,279.510223 
	C578.543213,279.510223 578.517517,279.616699 577.930786,279.492828 
	C577.833435,279.827881 577.736023,280.162964 577.530762,280.513733 
	C577.530762,280.513733 577.510376,280.620880 576.915466,280.492981 
	C576.790894,280.833405 576.666321,281.173828 576.129517,281.074371 
	C576.258484,281.228424 576.387512,281.382477 575.910156,281.457092 
	C575.815308,281.802277 575.720459,282.147491 575.505981,282.590057 
	C575.505981,282.590057 575.394470,282.696564 575.079651,282.466766 
	C574.955505,282.446716 574.831421,282.426636 574.707275,282.406586 
	C574.817993,282.607758 574.928650,282.808960 574.864807,283.665497 
	C551.590027,308.946198 528.344116,334.253479 505.028534,359.496460 
	C493.099304,372.411835 481.045471,385.212128 468.722992,397.742950 
	C468.507294,398.208710 468.291565,398.674438 468.056305,399.048187 
	C468.056305,399.048187 468.150360,399.050049 467.634796,399.254425 
	C467.441437,399.560852 467.248077,399.867310 467.049011,400.064667 
	C467.049011,400.064667 467.156769,400.082520 466.460999,400.090637 
	C465.996124,400.772766 465.531219,401.454865 465.050476,402.037842 
	C465.050476,402.037842 465.150879,402.040222 464.637909,402.274933 
	C464.456573,402.596375 464.275269,402.917816 464.077576,403.074036 
	C464.077576,403.074036 464.242920,403.088959 463.697296,403.292328 
M278.897705,401.100616 
	C278.897705,401.100616 278.858368,401.201752 278.710419,400.681122 
	C278.418213,400.486786 278.125977,400.292450 277.941559,400.050995 
	C277.941559,400.050995 277.877716,400.149841 277.868439,399.534302 
	C277.447235,399.324280 277.026031,399.114258 276.092957,398.584930 
	C276.049469,398.388580 276.005951,398.192230 276.258453,397.906586 
	C276.258453,397.906586 276.032898,397.701447 276.032898,397.701447 
	C276.032898,397.701447 275.895966,397.979187 275.393127,397.851440 
	C275.309937,397.699799 275.226776,397.548187 275.431641,396.750214 
	C274.545380,395.897827 273.659088,395.045410 272.902893,394.098785 
	C272.902893,394.098785 272.824341,394.238892 272.687225,393.705933 
	C272.384613,393.520721 272.082001,393.335480 271.877167,393.121704 
	C271.877167,393.121704 271.848480,393.219391 271.697723,392.692596 
	C271.396454,392.506531 271.095154,392.320465 270.888977,392.108337 
	C270.888977,392.108337 270.862640,392.203369 270.719116,391.682831 
	C270.434143,391.478027 270.149139,391.273254 269.956787,391.047394 
	C269.956787,391.047394 269.908325,391.129120 269.884949,390.505676 
	C269.450378,390.277191 269.015808,390.048737 268.177277,389.613678 
	C268.177277,389.613678 268.049866,389.178223 268.329071,388.906891 
	C268.329071,388.906891 268.059723,388.631561 268.059723,388.631561 
	C268.059723,388.631561 267.756897,388.873779 267.403198,388.755219 
	C267.403198,388.755219 267.242188,388.418732 267.478271,387.737427 
	C266.549713,386.925018 265.621155,386.112610 264.952576,385.000488 
	C264.952576,385.000488 264.709778,385.313812 264.643890,384.761749 
	C264.344757,384.571106 264.045593,384.380463 263.857422,384.142395 
	C263.857422,384.142395 263.810852,384.253723 263.677032,383.703278 
	C263.374725,383.495453 263.072418,383.287598 262.259064,382.880157 
	C261.817627,382.314209 261.376160,381.748230 260.914032,380.473663 
	C259.827240,379.414825 258.740448,378.355957 257.914734,377.053345 
	C257.914734,377.053345 257.682465,377.324707 257.643646,376.770203 
	C257.356689,376.559753 257.069733,376.349274 256.882599,376.115753 
	C256.882599,376.115753 256.857574,376.215088 256.698517,375.690765 
	C256.394623,375.509125 256.090729,375.327484 255.922913,375.069763 
	C255.922913,375.069763 255.828308,375.193695 255.847397,374.570068 
	C255.428864,374.348480 255.010330,374.126892 254.229462,373.725861 
	C254.229462,373.725861 254.101349,373.342346 254.393173,372.765625 
	C253.790237,372.432129 253.187302,372.098633 252.354416,371.632019 
	C252.354416,371.632019 252.224197,371.400391 252.474655,370.798309 
	C251.890182,370.262726 251.305710,369.727173 250.829529,369.157013 
	C250.829529,369.157013 250.796631,369.265808 250.685379,368.724915 
	C250.391525,368.523346 250.097656,368.321747 249.898300,368.098907 
	C249.898300,368.098907 249.878235,368.193665 249.709000,367.675537 
	C249.405869,367.495087 249.102737,367.314636 248.895966,367.104462 
	C248.895966,367.104462 248.866089,367.200775 248.703537,366.680817 
	C248.401764,366.498749 248.100006,366.316711 247.926361,366.063538 
	C247.926361,366.063538 247.840836,366.182526 247.871719,365.467468 
	C247.093948,364.871063 246.316177,364.274658 245.422028,363.558441 
	C245.422028,363.558441 245.307602,363.436737 245.515457,362.799927 
	C244.596848,361.920288 243.678238,361.040619 242.860809,360.131653 
	C242.860809,360.131653 242.834351,360.233612 242.683792,359.702850 
	C242.374023,359.529785 242.064255,359.356720 241.862869,359.139160 
	C241.862869,359.139160 241.819580,359.248047 241.680222,358.700378 
	C241.377151,358.495331 241.074081,358.290283 240.189774,357.771637 
	C238.917236,356.276642 237.730988,354.696655 236.357086,353.301483 
	C230.662750,347.518951 224.911713,341.792267 218.505127,336.546265 
	C218.344482,338.345673 218.047272,340.144806 218.044174,341.944489 
	C218.009995,361.755219 218.020996,381.566010 218.020874,401.376801 
	C218.020187,516.412537 218.012543,631.448242 218.075241,746.483948 
	C218.076416,748.625977 218.914215,750.767639 219.870117,753.167419 
	C220.743347,754.075684 221.616562,754.984009 223.266006,756.377991 
	C224.223740,756.580688 225.181198,756.959106 226.139206,756.960510 
	C249.894867,756.995178 273.650604,757.006470 297.406158,756.943726 
	C298.603821,756.940552 299.799652,756.237244 300.981659,755.968079 
	C300.981659,755.968079 300.875427,755.942932 301.442230,755.917786 
	C301.883850,755.660706 302.325500,755.403687 303.468292,754.788025 
	C304.310974,752.270630 305.887634,749.754150 305.890625,747.235779 
	C306.013824,643.841614 305.995605,540.447266 305.994171,437.052979 
	C305.994171,435.721100 306.428619,434.151733 305.876617,433.107452 
	C304.770752,431.015289 303.121521,429.210297 301.941986,427.032593 
	C301.941986,427.032593 301.721375,427.308502 301.655182,426.758301 
	C301.361938,426.558380 301.068726,426.358459 300.882202,426.113403 
	C300.882202,426.113403 300.837555,426.220337 300.693970,425.692688 
	C300.393738,425.506744 300.093506,425.320770 299.887604,425.111603 
	C299.887604,425.111603 299.863098,425.205597 299.710938,424.683044 
	C299.416138,424.489319 299.121368,424.295563 298.929382,424.060608 
	C298.929382,424.060608 298.876953,424.158203 298.886597,423.441498 
	C297.781921,422.547363 296.677216,421.653229 295.350861,420.619446 
	C295.350861,420.619446 295.229248,420.387421 295.478394,419.791718 
	C294.903717,419.250885 294.329041,418.710083 293.856171,418.131226 
	C293.856171,418.131226 293.824249,418.235138 293.694336,417.703644 
	C293.399506,417.508118 293.104706,417.312592 292.902161,417.096832 
	C292.902161,417.096832 292.882202,417.189148 292.708527,416.672699 
	C292.405334,416.492371 292.102142,416.312042 291.893982,416.104767 
	C291.893982,416.104767 291.866882,416.199738 291.717804,415.680267 
	C291.429810,415.479584 291.141815,415.278900 290.949463,415.051300 
	C290.949463,415.051300 290.900208,415.137604 290.898834,414.423737 
	C289.783936,413.497101 288.669037,412.570435 287.400665,411.507202 
	C287.400665,411.507202 287.310852,411.322418 287.494171,410.826477 
	C287.253387,410.599823 287.012604,410.373169 286.871185,410.120728 
	C286.871185,410.120728 286.845642,410.220123 286.701599,409.693970 
	C286.405090,409.502319 286.108612,409.310699 285.905334,409.093018 
	C285.905334,409.093018 285.878845,409.186127 285.717621,408.670654 
	C285.424011,408.479034 285.130402,408.287415 284.942993,408.049377 
	C284.942993,408.049377 284.881073,408.147339 284.869507,407.531158 
	C284.447235,407.319824 284.024963,407.108521 283.092773,406.581299 
	C283.035004,406.389893 282.977203,406.198486 283.250793,405.909058 
	C283.250793,405.909058 283.028137,405.651428 283.028137,405.651428 
	C283.028137,405.651428 282.810913,405.918640 282.314636,405.721008 
	C282.245819,405.556793 282.177032,405.392548 282.361664,404.923248 
	C282.361664,404.923248 282.082397,404.648499 282.082397,404.648499 
	C282.082397,404.648499 281.780243,404.901306 281.384857,404.776886 
	C281.384857,404.776886 281.209747,404.401184 281.555939,403.756500 
	C280.967041,403.226715 280.378143,402.696930 279.901825,402.099121 
	C279.901825,402.099121 279.846802,402.218597 279.698517,401.692902 
	C279.397766,401.508331 279.097015,401.323761 278.897705,401.100616 
M841.049255,748.188354 
	C841.049255,749.749695 841.049255,751.311096 841.049255,752.872437 
	C841.247192,752.868896 841.445129,752.865417 841.643066,752.861877 
	C841.643066,724.697815 841.643066,696.533691 841.643066,668.369629 
	C841.444946,668.370117 841.246765,668.370605 841.048645,668.371094 
	C841.048645,694.669312 841.048645,720.967529 841.049255,748.188354 
z"/>
<path fill="#FDFDFD" opacity="1.000000" stroke="none" 
	d="
M636.140259,756.902344 
	C630.380737,755.120422 624.074280,754.292725 618.970398,751.367065 
	C606.615540,744.284912 601.118408,732.707581 600.967590,718.672729 
	C600.783325,701.520630 600.876648,684.365417 600.877808,667.211548 
	C600.883850,574.441589 600.898926,481.671600 600.904724,388.901611 
	C600.904785,388.072662 600.820740,387.243744 600.301697,385.854309 
	C598.536987,386.164917 597.246643,387.035980 595.956177,387.907043 
	C572.222656,414.150330 548.521851,440.423370 524.743286,466.625885 
	C510.231384,482.617188 495.587158,498.488373 481.027618,514.436584 
	C474.544556,521.538025 467.899841,528.510315 461.763824,535.902588 
	C458.398346,539.957153 456.046478,539.195496 453.078705,535.828003 
	C444.069183,525.604980 434.921875,515.503235 425.932404,505.262848 
	C415.086700,492.907928 404.379333,480.431671 393.556213,468.056824 
	C369.714203,440.796692 345.799988,413.599640 321.984070,386.316742 
	C294.853088,355.236267 267.812134,324.077179 240.700012,292.980225 
	C231.216064,282.102356 221.608490,271.332245 212.132111,260.447845 
	C210.715408,258.820648 209.710434,256.834961 208.514969,255.015137 
	C208.775284,254.541214 209.035599,254.067291 209.295898,253.593369 
	C227.712524,253.593369 246.129150,253.593369 265.362518,253.462921 
	C279.016357,253.280426 291.853424,253.228394 304.690521,253.176346 
	C306.382538,253.739777 308.035706,254.545410 309.773376,254.823975 
	C316.630157,255.923050 322.055878,259.532562 326.586395,264.495056 
	C355.837677,296.535400 384.987030,328.668823 414.246155,360.701996 
	C424.032288,371.415924 434.042053,381.925568 444.267090,393.025391 
	C444.913055,393.834015 445.241516,394.145782 445.570007,394.457550 
	C445.570007,394.457550 445.716675,394.328156 445.762939,394.593079 
	C446.122620,395.043182 446.436005,395.228363 446.749420,395.413574 
	C446.749420,395.413574 446.781708,395.244629 446.828613,395.535645 
	C447.414001,396.370575 447.952423,396.914520 448.490875,397.458435 
	C448.490875,397.458435 448.668274,397.336578 448.808777,397.668945 
	C450.281067,399.373749 451.612823,400.746155 452.944550,402.118591 
	C452.944550,402.118591 452.959686,402.032074 453.008850,402.295898 
	C453.363983,402.757294 453.669983,402.954865 453.975983,403.152435 
	C453.968353,403.497833 454.113770,403.757538 454.794983,404.302673 
	C457.197723,405.172668 459.217712,405.671570 461.237701,406.170471 
	C461.237701,406.170441 461.111969,406.138245 461.389221,406.106323 
	C461.875610,405.768158 462.084778,405.461884 462.293945,405.155609 
	C462.293945,405.155609 462.132416,405.129517 462.409607,405.099426 
	C462.877655,404.748047 463.068481,404.426819 463.259308,404.105591 
	C463.259308,404.105591 463.085602,404.085266 463.361938,404.064789 
	C463.839844,403.725861 464.041382,403.407410 464.242920,403.088959 
	C464.242920,403.088959 464.077576,403.074036 464.347900,403.047546 
	C464.795807,402.694092 464.973328,402.367157 465.150879,402.040222 
	C465.150879,402.040222 465.050476,402.037842 465.337646,401.971039 
	C466.135437,401.296997 466.646118,400.689758 467.156799,400.082520 
	C467.156769,400.082520 467.049011,400.064667 467.312195,400.018005 
	C467.767029,399.664215 467.958710,399.357147 468.150360,399.050049 
	C468.150360,399.050049 468.056305,399.048187 468.303955,398.993408 
	C468.717041,398.647247 468.882477,398.355865 469.047943,398.064453 
	C481.045471,385.212128 493.099304,372.411835 505.028534,359.496460 
	C528.344116,334.253479 551.590027,308.946198 575.079346,283.302979 
	C575.293823,282.940460 575.394470,282.696564 575.394470,282.696564 
	C575.394470,282.696564 575.505981,282.590057 575.744629,282.411926 
	C576.210205,282.039032 576.388000,281.806641 576.516541,281.536560 
	C576.387512,281.382477 576.258484,281.228424 576.523499,281.176117 
	C577.155823,281.095612 577.353455,280.876617 577.510376,280.620880 
	C577.510376,280.620880 577.530762,280.513733 577.755737,280.384888 
	C578.199585,280.076447 578.378479,279.863342 578.517517,279.616699 
	C578.517517,279.616699 578.543213,279.510223 578.832214,279.305054 
	C579.832886,278.102448 580.544556,277.105042 581.256165,276.107605 
	C581.256165,276.107605 581.087891,276.082489 581.356934,276.058899 
	C581.823608,275.719177 582.021118,275.403015 582.218628,275.086853 
	C582.218689,275.086853 582.071228,275.071472 582.344177,275.040405 
	C582.823914,274.699188 583.030640,274.388977 583.237427,274.078796 
	C583.574646,274.109131 583.823608,273.975281 584.280640,273.338257 
	C584.775513,272.680481 584.974121,272.361694 585.172668,272.042877 
	C585.172668,272.042877 585.039368,272.035187 585.304321,272.002075 
	C585.759216,271.659485 585.949280,271.350006 586.139343,271.040527 
	C586.139343,271.040558 586.047485,271.038361 586.286194,270.995514 
	C586.845154,270.580353 587.165466,270.208038 587.485718,269.835693 
	C587.485718,269.835693 587.769165,269.659393 587.918457,269.433563 
	C588.067749,269.207733 588.371338,268.867371 588.371338,268.867371 
	C588.371338,268.867371 588.739502,268.715546 588.903687,268.461212 
	C589.067932,268.206879 589.370789,267.867950 589.370789,267.867950 
	C589.370789,267.867950 589.732605,267.716888 589.907715,267.463440 
	C590.082886,267.209961 590.399841,266.829498 590.399841,266.829498 
	C590.399841,266.829498 590.718323,266.681824 590.882446,266.453369 
	C591.046631,266.224915 591.353577,265.880493 591.353577,265.880493 
	C591.353577,265.880493 591.744751,265.726929 591.923584,265.458801 
	C592.227966,265.076080 592.332336,264.944641 592.415466,264.796387 
	C592.415466,264.796387 592.674438,264.659119 592.859497,264.459625 
	C593.188416,264.145874 593.302734,264.007202 593.387329,263.844086 
	C593.387329,263.844086 593.654602,263.738129 593.976074,263.459229 
	C595.032898,262.593384 595.768311,262.006439 596.503723,261.419464 
	C596.503723,261.419464 596.335205,261.360138 596.641846,261.277466 
	C597.712036,260.521576 598.475525,259.848328 599.239014,259.175079 
	C599.239014,259.175079 599.131775,259.147156 599.370117,259.145721 
	C599.608521,259.144287 599.989929,258.885773 599.989929,258.885773 
	C605.533508,257.151520 611.077026,255.417252 617.316040,253.348785 
	C639.535645,253.092453 661.059753,253.170349 682.583862,253.248260 
	C687.597778,253.476593 688.359375,256.451233 688.328796,260.885742 
	C688.130615,289.616302 688.183716,318.348663 688.171021,347.080414 
	C688.170471,348.232208 688.336487,349.384094 688.543335,351.361267 
	C688.694397,354.018219 688.756226,355.849823 688.755676,357.681427 
	C688.725708,453.296661 688.679810,548.911865 688.707031,644.527100 
	C688.707825,647.424255 689.466248,650.321106 689.871460,653.218140 
	C689.871460,653.218140 689.886475,653.098572 689.863647,653.429016 
	C689.989014,654.154663 690.137207,654.549805 690.285400,654.945007 
	C690.638062,655.578064 690.990723,656.211060 691.695068,657.199829 
	C692.346191,657.764832 692.645691,657.974121 692.945190,658.183472 
	C692.945190,658.183472 692.954102,658.047485 692.985474,658.315552 
	C693.325317,658.777588 693.633728,658.971497 693.942139,659.165466 
	C693.942139,659.165466 693.946533,659.062134 694.069885,659.385315 
	C697.790649,660.747314 701.388062,661.786133 705.449402,662.906372 
	C713.391235,662.991089 720.869202,663.006958 728.347107,662.995483 
	C764.238098,662.940186 800.129150,662.877502 836.317627,662.919922 
	C837.369507,663.371338 838.123901,663.720154 838.878235,664.068970 
	C839.290405,665.965393 840.056335,667.860779 840.061401,669.758301 
	C840.133850,696.838745 840.136841,723.919617 840.019958,750.999756 
	C840.012390,752.745361 838.888306,754.486084 837.618347,756.600586 
	C825.963257,756.981995 814.973511,757.005310 803.983704,756.999756 
	C748.035889,756.971375 692.088074,756.935547 636.140259,756.902344 
z"/>
<path fill="#FEFEFE" opacity="1.000000" stroke="none" 
	d="
M260.934723,381.182281 
	C261.376160,381.748230 261.817627,382.314209 262.609741,383.240723 
	C263.243896,383.818726 263.527374,384.036224 263.810852,384.253723 
	C263.810852,384.253723 263.857422,384.142395 263.876160,384.420288 
	C264.166534,384.903412 264.438171,385.108612 264.709778,385.313812 
	C264.709778,385.313812 264.952576,385.000488 264.938171,385.419983 
	C265.696594,386.699219 266.469391,387.558960 267.242188,388.418732 
	C267.242188,388.418732 267.403198,388.755219 267.625793,388.868225 
	C267.848358,388.981232 268.049866,389.178223 268.049866,389.178223 
	C268.049866,389.178223 268.177277,389.613678 268.505981,389.920715 
	C269.192596,390.528229 269.550476,390.828674 269.908325,391.129120 
	C269.908325,391.129120 269.956787,391.047394 269.975250,391.323425 
	C270.283356,391.800751 270.572998,392.002045 270.862640,392.203369 
	C270.862640,392.203369 270.888977,392.108337 270.928558,392.377258 
	C271.261597,392.837280 271.555054,393.028320 271.848480,393.219360 
	C271.848480,393.219391 271.877167,393.121704 271.912445,393.393158 
	C272.239929,393.856018 272.532135,394.047455 272.824341,394.238892 
	C272.824341,394.238892 272.902893,394.098785 272.920410,394.426819 
	C273.673157,395.635437 274.408386,396.515991 275.143646,397.396545 
	C275.226776,397.548187 275.309937,397.699799 275.671997,397.900269 
	C275.950897,397.949066 275.962463,397.995880 275.962463,397.995880 
	C276.005951,398.192230 276.049469,398.388580 276.461426,398.949127 
	C277.179199,399.592163 277.528473,399.871002 277.877716,400.149841 
	C277.877716,400.149841 277.941559,400.050995 277.969208,400.331970 
	C278.284027,400.809204 278.571198,401.005493 278.858368,401.201752 
	C278.858368,401.201752 278.897705,401.100616 278.929321,401.377808 
	C279.256256,401.842834 279.551514,402.030701 279.846802,402.218597 
	C279.846802,402.218597 279.901825,402.099121 279.900146,402.404724 
	C280.335571,403.273926 280.772675,403.837555 281.209747,404.401184 
	C281.209747,404.401184 281.384857,404.776886 281.630188,404.900269 
	C281.875519,405.023682 282.108215,405.228333 282.108215,405.228333 
	C282.177032,405.392548 282.245819,405.556793 282.595764,405.821381 
	C282.876892,405.921753 282.919403,406.007080 282.919403,406.007080 
	C282.977203,406.198486 283.035004,406.389893 283.459259,406.945679 
	C284.177521,407.589142 284.529297,407.868225 284.881073,408.147339 
	C284.881073,408.147339 284.942993,408.049377 284.973938,408.329346 
	C285.296234,408.801575 285.587524,408.993835 285.878845,409.186127 
	C285.878845,409.186127 285.905334,409.093018 285.942627,409.363037 
	C286.268524,409.828766 286.557098,410.024445 286.845642,410.220123 
	C286.845642,410.220123 286.871185,410.120728 286.865723,410.351746 
	C286.899475,410.896881 287.049683,411.143433 287.310852,411.322418 
	C287.310852,411.322418 287.400665,411.507202 287.639160,411.831299 
	C288.885162,413.149445 289.892700,414.143524 290.900208,415.137604 
	C290.900208,415.137604 290.949463,415.051300 290.972351,415.327637 
	C291.285797,415.802551 291.576355,416.001129 291.866882,416.199738 
	C291.866882,416.199738 291.893982,416.104767 291.937378,416.372925 
	C292.281250,416.823792 292.581726,417.006470 292.882202,417.189148 
	C292.882202,417.189148 292.902161,417.096832 292.937744,417.364746 
	C293.256927,417.833496 293.540588,418.034332 293.824249,418.235138 
	C293.824249,418.235138 293.856171,418.131226 293.868866,418.417236 
	C294.330780,419.264648 294.779999,419.826050 295.229248,420.387421 
	C295.229248,420.387421 295.350861,420.619446 295.620300,420.939453 
	C296.885468,422.225677 297.881195,423.191956 298.876953,424.158203 
	C298.876953,424.158203 298.929382,424.060608 298.961243,424.338745 
	C299.283081,424.813110 299.573090,425.009369 299.863098,425.205597 
	C299.863098,425.205597 299.887604,425.111603 299.924072,425.380157 
	C300.252899,425.839264 300.545227,426.029785 300.837555,426.220337 
	C300.837555,426.220337 300.882202,426.113403 300.900391,426.392944 
	C301.186157,426.884491 301.453766,427.096497 301.721375,427.308502 
	C301.721375,427.308502 301.941986,427.032593 301.985718,427.505371 
	C302.703033,431.464447 303.951477,434.948914 303.962738,438.437378 
	C304.102692,481.750061 304.059204,525.063293 304.069855,568.376404 
	C304.084381,627.348755 304.107880,686.321045 304.115173,745.293396 
	C304.115601,748.674377 305.171814,752.307312 301.760498,755.065491 
	C301.290985,755.387695 301.083191,755.665283 300.875427,755.942932 
	C300.875427,755.942932 300.981659,755.968079 300.521576,755.977417 
	C274.204254,755.955261 248.347031,755.923767 222.489792,755.892273 
	C221.616562,754.984009 220.743347,754.075684 219.504120,752.587463 
	C219.092941,750.175781 219.008270,748.343994 219.008179,746.512268 
	C219.001968,633.350891 218.992706,520.189575 219.010864,407.028198 
	C219.014664,383.367157 219.121902,359.706116 219.181488,336.045074 
	C224.911713,341.792267 230.662750,347.518951 236.357086,353.301483 
	C237.730988,354.696655 238.917236,356.276642 240.564865,358.194611 
	C241.233154,358.827759 241.526367,359.037903 241.819580,359.248047 
	C241.819580,359.248047 241.862869,359.139160 241.898590,359.415222 
	C242.234344,359.872070 242.534348,360.052826 242.834351,360.233612 
	C242.834351,360.233612 242.860809,360.131653 242.896561,360.441101 
	C243.724075,361.645966 244.515839,362.541351 245.307587,363.436737 
	C245.307602,363.436737 245.422028,363.558441 245.622650,363.871338 
	C246.495789,364.850342 247.168304,365.516449 247.840836,366.182526 
	C247.840836,366.182526 247.926361,366.063538 247.950027,366.354492 
	C248.271164,366.830566 248.568619,367.015686 248.866089,367.200775 
	C248.866089,367.200775 248.895966,367.104462 248.935226,367.375793 
	C249.275742,367.829285 249.576996,368.011475 249.878235,368.193665 
	C249.878235,368.193665 249.898300,368.098907 249.934845,368.366211 
	C250.246460,368.844299 250.521545,369.055054 250.796631,369.265808 
	C250.796631,369.265808 250.829529,369.157013 250.830780,369.449402 
	C251.296097,370.294647 251.760147,370.847534 252.224197,371.400391 
	C252.224197,371.400391 252.354416,371.632019 252.589172,371.883728 
	C253.249741,372.537750 253.675552,372.940063 254.101349,373.342346 
	C254.101349,373.342346 254.229462,373.725861 254.519592,374.023438 
	C255.149261,374.611877 255.488785,374.902802 255.828308,375.193695 
	C255.828308,375.193695 255.922913,375.069763 255.942383,375.363708 
	C256.260437,375.843475 256.558990,376.029297 256.857574,376.215088 
	C256.857574,376.215088 256.882599,376.115753 256.902466,376.383057 
	C257.175720,376.875153 257.429108,377.099915 257.682465,377.324707 
	C257.682465,377.324707 257.914734,377.053345 257.917908,377.470520 
	C258.925598,378.985901 259.930176,380.084106 260.934723,381.182281 
z"/>
<path fill="#12243E" opacity="1.000000" stroke="none" 
	d="
M302.022247,755.020874 
	C305.171814,752.307312 304.115601,748.674377 304.115173,745.293396 
	C304.107880,686.321045 304.084381,627.348755 304.069855,568.376404 
	C304.059204,525.063293 304.102692,481.750061 303.962738,438.437378 
	C303.951477,434.948914 302.703033,431.464447 301.863037,427.632446 
	C303.121521,429.210297 304.770752,431.015289 305.876617,433.107452 
	C306.428619,434.151733 305.994171,435.721100 305.994171,437.052979 
	C305.995605,540.447266 306.013824,643.841614 305.890625,747.235779 
	C305.887634,749.754150 304.310974,752.270630 302.928711,754.960327 
	C302.389099,755.132568 302.022247,755.020874 302.022247,755.020874 
z"/>
<path fill="#00000A" opacity="1.000000" stroke="none" 
	d="
M218.843292,336.295654 
	C219.121902,359.706116 219.014664,383.367157 219.010864,407.028198 
	C218.992706,520.189575 219.001968,633.350891 219.008179,746.512268 
	C219.008270,748.343994 219.092941,750.175781 219.249893,752.458496 
	C218.914215,750.767639 218.076416,748.625977 218.075241,746.483948 
	C218.012543,631.448242 218.020187,516.412537 218.020874,401.376801 
	C218.020996,381.566010 218.009995,361.755219 218.044174,341.944489 
	C218.047272,340.144806 218.344482,338.345673 218.843292,336.295654 
z"/>
<path fill="#00000A" opacity="1.000000" stroke="none" 
	d="
M689.883179,652.806641 
	C689.466248,650.321106 688.707825,647.424255 688.707031,644.527100 
	C688.679810,548.911865 688.725708,453.296661 688.755676,357.681427 
	C688.756226,355.849823 688.694397,354.018219 688.743469,351.745239 
	C688.929443,338.849365 689.058716,326.395020 689.131836,313.940308 
	C689.244019,294.838867 689.317383,275.737183 689.689697,256.786560 
	C689.991394,265.615753 690.010742,274.294006 690.030151,282.972290 
	C690.013916,283.735931 689.997742,284.499542 689.988770,286.109985 
	C689.997620,316.955536 689.995422,346.954224 690.002075,376.952942 
	C690.022217,467.948608 690.045715,558.944275 690.067932,649.939941 
	C690.010254,650.758362 689.952637,651.576782 689.883179,652.806641 
z"/>
<path fill="#063152" opacity="1.000000" stroke="none" 
	d="
M690.349426,649.643555 
	C690.045715,558.944275 690.022217,467.948608 690.002075,376.952942 
	C689.995422,346.954224 689.997620,316.955536 690.011841,286.491394 
	C690.351685,287.758179 690.958618,289.490356 690.959290,291.222687 
	C691.003235,409.117462 690.999695,527.012207 690.982483,644.906982 
	C690.982300,646.387024 690.753174,647.867126 690.349426,649.643555 
z"/>
<path fill="#01041E" opacity="1.000000" stroke="none" 
	d="
M596.140869,388.112762 
	C597.246643,387.035980 598.536987,386.164917 599.949768,385.597748 
	C600.026184,433.205292 599.954712,480.508972 599.940613,527.812622 
	C599.922058,590.274963 599.948425,652.737305 599.955444,715.199646 
	C599.955566,716.762756 599.955444,718.325867 599.955444,719.888977 
	C599.699707,719.886169 599.443970,719.883423 599.188232,719.880676 
	C599.188232,609.318237 599.188232,498.755859 599.188232,387.847565 
	C598.040100,388.036438 597.182800,388.177460 596.140869,388.112762 
z"/>
<path fill="#00000A" opacity="1.000000" stroke="none" 
	d="
M635.793274,756.984863 
	C692.088074,756.935547 748.035889,756.971375 803.983704,756.999756 
	C814.973511,757.005310 825.963257,756.981995 837.413574,756.942993 
	C837.244507,757.271973 836.615051,757.943298 835.985352,757.943604 
	C768.795288,757.973328 701.605225,757.953125 634.415161,757.927368 
	C634.008301,757.927246 633.601440,757.808838 633.179565,757.226807 
	C633.935120,757.173706 634.690735,757.120605 635.793274,756.984863 
z"/>
<path fill="#01041E" opacity="1.000000" stroke="none" 
	d="
M704.985474,662.824951 
	C701.388062,661.786133 697.790649,660.747314 694.019165,659.395081 
	C699.904785,659.730591 705.962219,660.915405 712.024658,660.941406 
	C751.337402,661.109924 790.651184,661.020813 829.964661,661.041931 
	C831.776123,661.042908 833.587463,661.290955 835.700073,661.711304 
	C836.001282,661.998718 836.013428,661.986694 835.543579,661.974487 
	C793.632629,661.968262 752.191528,661.962891 710.750488,662.015930 
	C708.828491,662.018372 706.907104,662.543274 704.985474,662.824951 
z"/>
<path fill="#01041E" opacity="1.000000" stroke="none" 
	d="
M304.873535,252.922485 
	C291.853424,253.228394 279.016357,253.280426 265.737244,253.248398 
	C248.642456,253.105652 231.989716,253.046402 215.336975,252.989059 
	C213.590408,252.983047 211.843826,252.988281 210.105667,252.177780 
	C211.069809,252.124634 212.033936,252.025452 212.998093,252.025055 
	C242.652817,252.012756 272.307526,252.003479 301.962219,252.033966 
	C302.993866,252.035019 304.025085,252.447739 304.873535,252.922485 
z"/>
<path fill="#01041E" opacity="1.000000" stroke="none" 
	d="
M841.048950,747.727051 
	C841.048645,720.967529 841.048645,694.669312 841.048645,668.371094 
	C841.246765,668.370605 841.444946,668.370117 841.643066,668.369629 
	C841.643066,696.533691 841.643066,724.697815 841.643066,752.861877 
	C841.445129,752.865417 841.247192,752.868896 841.049255,752.872437 
	C841.049255,751.311096 841.049255,749.749695 841.048950,747.727051 
z"/>
<path fill="#00000A" opacity="1.000000" stroke="none" 
	d="
M222.877899,756.135132 
	C248.347031,755.923767 274.204254,755.955261 300.528931,755.923340 
	C299.799652,756.237244 298.603821,756.940552 297.406158,756.943726 
	C273.650604,757.006470 249.894867,756.995178 226.139206,756.960510 
	C225.181198,756.959106 224.223740,756.580688 222.877899,756.135132 
z"/>
<path fill="#00000A" opacity="1.000000" stroke="none" 
	d="
M682.867371,253.107025 
	C661.059753,253.170349 639.535645,253.092453 617.548462,253.028961 
	C616.926575,252.996460 616.724792,252.994415 616.618713,252.892624 
	C616.439514,252.720673 616.321045,252.485535 616.177063,252.276978 
	C616.623596,252.189651 617.070190,252.026077 617.516724,252.026001 
	C639.201294,252.022751 660.885925,252.033417 682.570496,252.044586 
	C682.901123,252.044754 683.231750,252.070557 683.562378,252.084381 
	C683.425232,252.378174 683.288025,252.671982 682.867371,253.107025 
z"/>
<path fill="#063152" opacity="1.000000" stroke="none" 
	d="
M690.319153,282.676422 
	C690.010742,274.294006 689.991394,265.615753 689.951538,256.468842 
	C690.287292,258.694824 690.921875,261.387207 690.943542,264.084503 
	C690.992493,270.181915 690.738770,276.281708 690.319153,282.676422 
z"/>
<path fill="#01041E" opacity="1.000000" stroke="none" 
	d="
M452.931824,401.751282 
	C451.612823,400.746155 450.281067,399.373749 448.747101,397.757141 
	C450.002960,398.803314 451.461029,400.093658 452.931824,401.751282 
z"/>
<path fill="#01041E" opacity="1.000000" stroke="none" 
	d="
M460.852539,406.114838 
	C459.217712,405.671570 457.197723,405.172668 455.023071,404.348877 
	C456.734772,404.702362 458.601074,405.380768 460.852539,406.114838 
z"/>
<path fill="#12243E" opacity="1.000000" stroke="none" 
	d="
M290.899536,414.780670 
	C289.892700,414.143524 288.885162,413.149445 287.715881,411.899597 
	C288.669037,412.570435 289.783936,413.497101 290.899536,414.780670 
z"/>
<path fill="#12243E" opacity="1.000000" stroke="none" 
	d="
M260.924377,380.827972 
	C259.930176,380.084106 258.925598,378.985901 257.787354,377.592407 
	C258.740448,378.355957 259.827240,379.414825 260.924377,380.827972 
z"/>
<path fill="#12243E" opacity="1.000000" stroke="none" 
	d="
M267.360229,388.078064 
	C266.469391,387.558960 265.696594,386.699219 264.808228,385.569824 
	C265.621155,386.112610 266.549713,386.925018 267.360229,388.078064 
z"/>
<path fill="#12243E" opacity="1.000000" stroke="none" 
	d="
M275.287659,397.073364 
	C274.408386,396.515991 273.673157,395.635437 272.855347,394.473938 
	C273.659088,395.045410 274.545380,395.897827 275.287659,397.073364 
z"/>
<path fill="#12243E" opacity="1.000000" stroke="none" 
	d="
M298.881775,423.799866 
	C297.881195,423.191956 296.885468,422.225677 295.731140,421.009277 
	C296.677216,421.653229 297.781921,422.547363 298.881775,423.799866 
z"/>
<path fill="#01041E" opacity="1.000000" stroke="none" 
	d="
M839.082825,663.874634 
	C838.123901,663.720154 837.369507,663.371338 836.317871,662.712280 
	C836.020569,662.402100 836.013428,661.986694 836.013428,661.986694 
	C836.013428,661.986694 836.001282,661.998718 835.994385,662.005615 
	C837.087463,662.568420 838.187439,663.124390 839.082825,663.874634 
z"/>
<path fill="#01041E" opacity="1.000000" stroke="none" 
	d="
M580.914307,276.182739 
	C580.544556,277.105042 579.832886,278.102448 578.886719,279.299866 
	C579.292297,278.419189 579.932373,277.338501 580.914307,276.182739 
z"/>
<path fill="#12243E" opacity="1.000000" stroke="none" 
	d="
M245.411530,363.118347 
	C244.515839,362.541351 243.724075,361.645966 242.845963,360.455750 
	C243.678238,361.040619 244.596848,361.920288 245.411530,363.118347 
z"/>
<path fill="#01041E" opacity="1.000000" stroke="none" 
	d="
M448.600983,397.089050 
	C447.952423,396.914520 447.414001,396.370575 446.748566,395.567017 
	C447.318085,395.778168 448.014587,396.248932 448.600983,397.089050 
z"/>
<path fill="#12243E" opacity="1.000000" stroke="none" 
	d="
M281.382843,404.078857 
	C280.772675,403.837555 280.335571,403.273926 279.843872,402.438721 
	C280.378143,402.696930 280.967041,403.226715 281.382843,404.078857 
z"/>
<path fill="#01041E" opacity="1.000000" stroke="none" 
	d="
M596.140137,261.383057 
	C595.768311,262.006439 595.032898,262.593384 594.064819,263.346191 
	C594.480347,262.790253 595.128418,262.068451 596.140137,261.383057 
z"/>
<path fill="#01041E" opacity="1.000000" stroke="none" 
	d="
M598.872986,259.144897 
	C598.475525,259.848328 597.712036,260.521576 596.683289,261.356628 
	C597.114380,260.717163 597.810669,259.915955 598.872986,259.144897 
z"/>
<path fill="#12243E" opacity="1.000000" stroke="none" 
	d="
M247.856277,365.825012 
	C247.168304,365.516449 246.495789,364.850342 245.680847,363.931244 
	C246.316177,364.274658 247.093948,364.871063 247.856277,365.825012 
z"/>
<path fill="#12243E" opacity="1.000000" stroke="none" 
	d="
M252.349426,371.099365 
	C251.760147,370.847534 251.296097,370.294647 250.776642,369.466675 
	C251.305710,369.727173 251.890182,370.262726 252.349426,371.099365 
z"/>
<path fill="#12243E" opacity="1.000000" stroke="none" 
	d="
M254.247253,373.053986 
	C253.675552,372.940063 253.249741,372.537750 252.704163,371.950317 
	C253.187302,372.098633 253.790237,372.432129 254.247253,373.053986 
z"/>
<path fill="#12243E" opacity="1.000000" stroke="none" 
	d="
M295.353821,420.089569 
	C294.779999,419.826050 294.330780,419.264648 293.817932,418.436279 
	C294.329041,418.710083 294.903717,419.250885 295.353821,420.089569 
z"/>
<path fill="#01041E" opacity="1.000000" stroke="none" 
	d="
M466.808899,400.086609 
	C466.646118,400.689758 466.135437,401.296997 465.345581,402.020630 
	C465.531219,401.454865 465.996124,400.772766 466.808899,400.086609 
z"/>
<path fill="#01041E" opacity="1.000000" stroke="none" 
	d="
M445.615173,394.188049 
	C445.241516,394.145782 444.913055,393.834015 444.518036,393.303925 
	C444.854462,393.363251 445.257385,393.640900 445.615173,394.188049 
z"/>
<path fill="#12243E" opacity="1.000000" stroke="none" 
	d="
M269.896637,390.817383 
	C269.550476,390.828674 269.192596,390.528229 268.707977,390.024017 
	C269.015808,390.048737 269.450378,390.277191 269.896637,390.817383 
z"/>
<path fill="#12243E" opacity="1.000000" stroke="none" 
	d="
M277.873077,399.842072 
	C277.528473,399.871002 277.179199,399.592163 276.717407,399.108765 
	C277.026031,399.114258 277.447235,399.324280 277.873077,399.842072 
z"/>
<path fill="#01041E" opacity="1.000000" stroke="none" 
	d="
M468.885468,397.903687 
	C468.882477,398.355865 468.717041,398.647247 468.313721,399.039429 
	C468.291565,398.674438 468.507294,398.208710 468.885468,397.903687 
z"/>
<path fill="#00000A" opacity="1.000000" stroke="none" 
	d="
M690.464417,654.752441 
	C690.137207,654.549805 689.989014,654.154663 689.805054,653.443237 
	C690.060730,653.604675 690.352112,654.082275 690.464417,654.752441 
z"/>
<path fill="#12243E" opacity="1.000000" stroke="none" 
	d="
M284.875305,407.839233 
	C284.529297,407.868225 284.177521,407.589142 283.714203,407.103638 
	C284.024963,407.108521 284.447235,407.319824 284.875305,407.839233 
z"/>
<path fill="#12243E" opacity="1.000000" stroke="none" 
	d="
M255.837860,374.881897 
	C255.488785,374.902802 255.149261,374.611877 254.700760,374.113159 
	C255.010330,374.126892 255.428864,374.348480 255.837860,374.881897 
z"/>
<path fill="#00000A" opacity="1.000000" stroke="none" 
	d="
M301.760498,755.065491 
	C302.022247,755.020874 302.389099,755.132568 302.578125,755.139587 
	C302.325500,755.403687 301.883850,755.660706 301.158813,755.930359 
	C301.083191,755.665283 301.290985,755.387695 301.760498,755.065491 
z"/>
<path fill="#01041E" opacity="1.000000" stroke="none" 
	d="
M587.191467,269.715485 
	C587.165466,270.208038 586.845154,270.580353 586.294006,271.040771 
	C586.341125,270.617676 586.619202,270.106476 587.191467,269.715485 
z"/>
<path fill="#01041E" opacity="1.000000" stroke="none" 
	d="
M577.212891,280.556946 
	C577.353455,280.876617 577.155823,281.095612 576.729614,281.396057 
	C576.666321,281.173828 576.790894,280.833405 577.212891,280.556946 
z"/>
<path fill="#12243E" opacity="1.000000" stroke="none" 
	d="
M285.798218,408.928406 
	C285.587524,408.993835 285.296234,408.801575 284.920837,408.352539 
	C285.130402,408.287415 285.424011,408.479034 285.798218,408.928406 
z"/>
<path fill="#12243E" opacity="1.000000" stroke="none" 
	d="
M291.792358,415.940002 
	C291.576355,416.001129 291.285797,415.802551 290.924530,415.341125 
	C291.141815,415.278900 291.429810,415.479584 291.792358,415.940002 
z"/>
<path fill="#12243E" opacity="1.000000" stroke="none" 
	d="
M287.402527,411.074463 
	C287.049683,411.143433 286.899475,410.896881 286.816040,410.364624 
	C287.012604,410.373169 287.253387,410.599823 287.402527,411.074463 
z"/>
<path fill="#12243E" opacity="1.000000" stroke="none" 
	d="
M286.773621,409.957031 
	C286.557098,410.024445 286.268524,409.828766 285.896027,409.376068 
	C286.108612,409.310699 286.405090,409.502319 286.773621,409.957031 
z"/>
<path fill="#12243E" opacity="1.000000" stroke="none" 
	d="
M299.787018,424.944336 
	C299.573090,425.009369 299.283081,424.813110 298.909851,424.359344 
	C299.121368,424.295563 299.416138,424.489319 299.787018,424.944336 
z"/>
<path fill="#01041E" opacity="1.000000" stroke="none" 
	d="
M462.011047,405.230804 
	C462.084778,405.461884 461.875610,405.768158 461.398987,406.170471 
	C461.330383,405.946350 461.529266,405.626190 462.011047,405.230804 
z"/>
<path fill="#12243E" opacity="1.000000" stroke="none" 
	d="
M283.085083,405.958069 
	C282.919403,406.007080 282.876892,405.921753 282.843903,405.920197 
	C282.810913,405.918640 283.028137,405.651428 283.028137,405.651428 
	C283.028137,405.651428 283.250793,405.909058 283.085083,405.958069 
z"/>
<path fill="#01041E" opacity="1.000000" stroke="none" 
	d="
M462.979248,404.196472 
	C463.068481,404.426819 462.877655,404.748047 462.423523,405.180023 
	C462.339905,404.956268 462.519531,404.621796 462.979248,404.196472 
z"/>
<path fill="#12243E" opacity="1.000000" stroke="none" 
	d="
M292.795349,416.930908 
	C292.581726,417.006470 292.281250,416.823792 291.889862,416.386414 
	C292.102142,416.312042 292.405334,416.492371 292.795349,416.930908 
z"/>
<path fill="#12243E" opacity="1.000000" stroke="none" 
	d="
M293.759277,417.969391 
	C293.540588,418.034332 293.256927,417.833496 292.891602,417.374847 
	C293.104706,417.312592 293.399506,417.508118 293.759277,417.969391 
z"/>
<path fill="#01041E" opacity="1.000000" stroke="none" 
	d="
M578.224121,279.554749 
	C578.378479,279.863342 578.199585,280.076447 577.809692,280.377014 
	C577.736023,280.162964 577.833435,279.827881 578.224121,279.554749 
z"/>
<path fill="#01041E" opacity="1.000000" stroke="none" 
	d="
M575.237061,282.581665 
	C575.394470,282.696564 575.293823,282.940460 575.166565,282.975311 
	C574.928650,282.808960 574.817993,282.607758 574.707275,282.406586 
	C574.831421,282.426636 574.955505,282.446716 575.237061,282.581665 
z"/>
<path fill="#12243E" opacity="1.000000" stroke="none" 
	d="
M300.765747,425.956512 
	C300.545227,426.029785 300.252899,425.839264 299.876923,425.391785 
	C300.093506,425.320770 300.393738,425.506744 300.765747,425.956512 
z"/>
<path fill="#12243E" opacity="1.000000" stroke="none" 
	d="
M301.688293,427.033386 
	C301.453766,427.096497 301.186157,426.884491 300.847015,426.415527 
	C301.068726,426.358459 301.361938,426.558380 301.688293,427.033386 
z"/>
<path fill="#01041E" opacity="1.000000" stroke="none" 
	d="
M581.950989,275.190430 
	C582.021118,275.403015 581.823608,275.719177 581.361938,276.143860 
	C581.292969,275.932953 581.488159,275.613495 581.950989,275.190430 
z"/>
<path fill="#01041E" opacity="1.000000" stroke="none" 
	d="
M692.845703,657.924438 
	C692.645691,657.974121 692.346191,657.764832 691.959290,657.288696 
	C692.163330,657.236389 692.454773,657.450928 692.845703,657.924438 
z"/>
<path fill="#01041E" opacity="1.000000" stroke="none" 
	d="
M693.842346,658.904419 
	C693.633728,658.971497 693.325317,658.777588 692.917542,658.320740 
	C693.126343,658.252991 693.434448,658.448181 693.842346,658.904419 
z"/>
<path fill="#01041E" opacity="1.000000" stroke="none" 
	d="
M599.869507,258.736877 
	C599.989929,258.885773 599.608521,259.144287 599.384888,259.199127 
	C599.357178,259.031952 599.553101,258.809967 599.869507,258.736877 
z"/>
<path fill="#01041E" opacity="1.000000" stroke="none" 
	d="
M582.969116,274.180725 
	C583.030640,274.388977 582.823914,274.699188 582.351196,275.114197 
	C582.290466,274.906952 582.495667,274.594818 582.969116,274.180725 
z"/>
<path fill="#01041E" opacity="1.000000" stroke="none" 
	d="
M584.906616,272.154938 
	C584.974121,272.361694 584.775513,272.680481 584.315674,273.117798 
	C584.249756,272.913177 584.445129,272.590088 584.906616,272.154938 
z"/>
<path fill="#01041E" opacity="1.000000" stroke="none" 
	d="
M585.883911,271.146423 
	C585.949280,271.350006 585.759216,271.659485 585.308105,272.068756 
	C585.240845,271.863129 585.434692,271.557709 585.883911,271.146423 
z"/>
<path fill="#01041E" opacity="1.000000" stroke="none" 
	d="
M588.162781,268.722229 
	C588.371338,268.867371 588.067749,269.207733 587.977173,269.277344 
	C587.829590,269.169250 587.744263,268.993866 587.729736,268.812775 
	C587.723938,268.740723 587.874695,268.656036 588.162781,268.722229 
z"/>
<path fill="#12243E" opacity="1.000000" stroke="none" 
	d="
M271.773102,392.955994 
	C271.555054,393.028320 271.261597,392.837280 270.880981,392.390320 
	C271.095154,392.320465 271.396454,392.506531 271.773102,392.955994 
z"/>
<path fill="#12243E" opacity="1.000000" stroke="none" 
	d="
M248.784821,366.940796 
	C248.568619,367.015686 248.271164,366.830566 247.885956,366.390076 
	C248.100006,366.316711 248.401764,366.498749 248.784821,366.940796 
z"/>
<path fill="#12243E" opacity="1.000000" stroke="none" 
	d="
M249.793610,367.934601 
	C249.576996,368.011475 249.275742,367.829285 248.887054,367.390625 
	C249.102737,367.314636 249.405869,367.495087 249.793610,367.934601 
z"/>
<path fill="#12243E" opacity="1.000000" stroke="none" 
	d="
M250.740997,368.995361 
	C250.521545,369.055054 250.246460,368.844299 249.887604,368.376862 
	C250.097656,368.321747 250.391525,368.523346 250.740997,368.995361 
z"/>
<path fill="#12243E" opacity="1.000000" stroke="none" 
	d="
M256.778046,375.952942 
	C256.558990,376.029297 256.260437,375.843475 255.874329,375.401764 
	C256.090729,375.327484 256.394623,375.509125 256.778046,375.952942 
z"/>
<path fill="#12243E" opacity="1.000000" stroke="none" 
	d="
M257.663055,377.047455 
	C257.429108,377.099915 257.175720,376.875153 256.852539,376.394592 
	C257.069733,376.349274 257.356689,376.559753 257.663055,377.047455 
z"/>
<path fill="#12243E" opacity="1.000000" stroke="none" 
	d="
M242.759064,359.968231 
	C242.534348,360.052826 242.234344,359.872070 241.844406,359.437469 
	C242.064255,359.356720 242.374023,359.529785 242.759064,359.968231 
z"/>
<path fill="#12243E" opacity="1.000000" stroke="none" 
	d="
M263.743958,383.978516 
	C263.527374,384.036224 263.243896,383.818726 262.865265,383.340515 
	C263.072418,383.287598 263.374725,383.495453 263.743958,383.978516 
z"/>
<path fill="#12243E" opacity="1.000000" stroke="none" 
	d="
M264.676819,385.037781 
	C264.438171,385.108612 264.166534,384.903412 263.820679,384.444000 
	C264.045593,384.380463 264.344757,384.571106 264.676819,385.037781 
z"/>
<path fill="#12243E" opacity="1.000000" stroke="none" 
	d="
M241.749908,358.974213 
	C241.526367,359.037903 241.233154,358.827759 240.855469,358.351410 
	C241.074081,358.290283 241.377151,358.495331 241.749908,358.974213 
z"/>
<path fill="#01041E" opacity="1.000000" stroke="none" 
	d="
M593.161133,263.703583 
	C593.302734,264.007202 593.188416,264.145874 592.928223,264.330261 
	C592.852966,264.121277 592.893921,263.842163 593.161133,263.703583 
z"/>
<path fill="#01041E" opacity="1.000000" stroke="none" 
	d="
M592.187256,264.667236 
	C592.332336,264.944641 592.227966,265.076080 591.998413,265.262512 
	C591.835205,265.151215 591.746704,264.970581 591.730957,264.783813 
	C591.724670,264.708832 591.878235,264.620392 592.187256,264.667236 
z"/>
<path fill="#12243E" opacity="1.000000" stroke="none" 
	d="
M268.189453,389.042542 
	C268.049866,389.178223 267.848358,388.981232 267.802612,388.927490 
	C267.756897,388.873779 268.059723,388.631561 268.059723,388.631561 
	C268.059723,388.631561 268.329071,388.906891 268.189453,389.042542 
z"/>
<path fill="#12243E" opacity="1.000000" stroke="none" 
	d="
M270.790894,391.943115 
	C270.572998,392.002045 270.283356,391.800751 269.928925,391.333954 
	C270.149139,391.273254 270.434143,391.478027 270.790894,391.943115 
z"/>
<path fill="#01041E" opacity="1.000000" stroke="none" 
	d="
M576.213379,281.496826 
	C576.388000,281.806641 576.210205,282.039032 575.804443,282.363220 
	C575.720459,282.147491 575.815308,281.802277 576.213379,281.496826 
z"/>
<path fill="#12243E" opacity="1.000000" stroke="none" 
	d="
M272.755798,393.972412 
	C272.532135,394.047455 272.239929,393.856018 271.863586,393.407410 
	C272.082001,393.335480 272.384613,393.520721 272.755798,393.972412 
z"/>
<path fill="#01041E" opacity="1.000000" stroke="none" 
	d="
M591.147278,265.728882 
	C591.353577,265.880493 591.046631,266.224915 590.952881,266.292603 
	C590.805786,266.178497 590.723694,265.998383 590.712830,265.814117 
	C590.708435,265.739899 590.860291,265.656494 591.147278,265.728882 
z"/>
<path fill="#01041E" opacity="1.000000" stroke="none" 
	d="
M446.685150,395.109314 
	C446.436005,395.228363 446.122620,395.043182 445.668701,394.619141 
	C445.892395,394.521881 446.256653,394.663483 446.685150,395.109314 
z"/>
<path fill="#01041E" opacity="1.000000" stroke="none" 
	d="
M589.162659,267.722595 
	C589.370789,267.867950 589.067932,268.206879 588.977783,268.276398 
	C588.830444,268.168579 588.744934,267.993530 588.730225,267.812744 
	C588.724304,267.740845 588.875122,267.656158 589.162659,267.722595 
z"/>
<path fill="#12243E" opacity="1.000000" stroke="none" 
	d="
M276.110474,397.951233 
	C275.962463,397.995880 275.950897,397.949066 275.923431,397.964111 
	C275.895966,397.979187 276.032898,397.701447 276.032898,397.701447 
	C276.032898,397.701447 276.258453,397.906586 276.110474,397.951233 
z"/>
<path fill="#01041E" opacity="1.000000" stroke="none" 
	d="
M590.178528,266.696320 
	C590.399841,266.829498 590.082886,267.209961 589.981689,267.281860 
	C589.825623,267.170837 589.742065,266.989777 589.730164,266.804169 
	C589.725342,266.728973 589.876831,266.643799 590.178528,266.696320 
z"/>
<path fill="#01041E" opacity="1.000000" stroke="none" 
	d="
M467.892578,399.152222 
	C467.958710,399.357147 467.767029,399.664215 467.315002,400.072540 
	C467.248077,399.867310 467.441437,399.560852 467.892578,399.152222 
z"/>
<path fill="#12243E" opacity="1.000000" stroke="none" 
	d="
M278.784393,400.941437 
	C278.571198,401.005493 278.284027,400.809204 277.915283,400.355530 
	C278.125977,400.292450 278.418213,400.486786 278.784393,400.941437 
z"/>
<path fill="#12243E" opacity="1.000000" stroke="none" 
	d="
M279.772644,401.955750 
	C279.551514,402.030701 279.256256,401.842834 278.878601,401.397095 
	C279.097015,401.323761 279.397766,401.508331 279.772644,401.955750 
z"/>
<path fill="#01041E" opacity="1.000000" stroke="none" 
	d="
M453.868835,402.898499 
	C453.669983,402.954865 453.363983,402.757294 452.964905,402.295776 
	C453.168457,402.236115 453.465057,402.440338 453.868835,402.898499 
z"/>
<path fill="#01041E" opacity="1.000000" stroke="none" 
	d="
M464.894409,402.157593 
	C464.973328,402.367157 464.795807,402.694092 464.356110,403.130127 
	C464.275269,402.917816 464.456573,402.596375 464.894409,402.157593 
z"/>
<path fill="#01041E" opacity="1.000000" stroke="none" 
	d="
M463.970093,403.190643 
	C464.041382,403.407410 463.839844,403.725861 463.369385,404.151917 
	C463.299438,403.937134 463.498352,403.614746 463.970093,403.190643 
z"/>
<path fill="#12243E" opacity="1.000000" stroke="none" 
	d="
M282.234924,405.075806 
	C282.108215,405.228333 281.875519,405.023682 281.827881,404.962494 
	C281.780243,404.901306 282.082397,404.648499 282.082397,404.648499 
	C282.082397,404.648499 282.361664,404.923248 282.234924,405.075806 
z"/>
<path fill="#002543" opacity="1.000000" stroke="none" 
	d="
M835.543579,661.974487 
	C836.013428,661.986694 836.020569,662.402100 836.020386,662.609741 
	C800.129150,662.877502 764.238098,662.940186 728.347107,662.995483 
	C720.869202,663.006958 713.391235,662.991089 705.449402,662.906372 
	C706.907104,662.543274 708.828491,662.018372 710.750488,662.015930 
	C752.191528,661.962891 793.632629,661.968262 835.543579,661.974487 
z"/>
</svg>